#!OML:ASF H:\Dans Jumps\Project 1\Capture day 1\Session 1\subject.ASF
:FULLY-SPECIFIED
:DEGREES
246
root 0.237894 15.872 -3.61654 -7.64796 4.12376 -3.62458
lowerback 5.91302 -0.457465 -1.01085
upperback 5.44267 -0.670081 2.10669
thorax 2.3368 -0.405942 2.76428
lowerneck -11.4179 -0.533308 -2.24752
upperneck 33.6523 -0.8059 1.86852
head 13.1888 -0.384772 1.01497
rclavicle -2.0481e-014 -2.97183e-014
rhumerus -11.3411 -23.9571 -85.1639
rradius 20.1569
rwrist 41.5107
rhand -23.7533 -27.7158
rfingers 7.12502
rthumb 2.71564 -57.6783
lclavicle -2.0481e-014 -2.97183e-014
lhumerus -2.21222 5.24043 91.587
lradius 18.7995
lwrist 11.8631
lhand -29.1449 -10.4972
lfingers 7.12502
lthumb -2.49164 19.468
rfemur -24.3932 -7.26236 21.5681
rtibia 58.4142
rfoot -23.105 -3.05721
rtoes 3.13812
lfemur -26.5991 6.39798 -14.0842
ltibia 57.9033
lfoot -19.4675 7.4485
ltoes -7.45896
247
root 0.241729 15.8948 -3.57477 -7.37873 4.04137 -3.5382
lowerback 5.81645 -0.385139 -1.03226
upperback 5.34862 -0.57354 2.11004
thorax 2.28748 -0.356917 2.77551
lowerneck -11.3951 -0.583508 -2.25052
upperneck 33.8829 -0.891536 1.89953
head 13.2863 -0.418759 1.01798
rclavicle 3.5657e-015 1.14301e-015
rhumerus -11.3636 -23.6287 -85.1269
rradius 20.1493
rwrist 41.504
rhand -23.6808 -27.6211
rfingers 7.12502
rthumb 2.78562 -57.5827
lclavicle 3.5657e-015 1.14301e-015
lhumerus -2.47572 5.59012 91.4411
lradius 18.4285
lwrist 11.2332
lhand -28.6787 -10.1861
lfingers 7.12502
lthumb -2.04143 19.7839
rfemur -24.3984 -7.53431 21.4758
rtibia 58.1827
rfoot -23.2046 -2.73904
rtoes 3.35904
lfemur -26.5117 6.26746 -14.2013
ltibia 57.6067
lfoot -19.4732 7.79197
ltoes -7.59077
248
root 0.245198 15.9281 -3.5369 -7.01233 3.8683 -3.38003
lowerback 5.65417 -0.280937 -1.11856
upperback 5.25076 -0.436535 2.08675
thorax 2.2688 -0.289401 2.79391
lowerneck -11.3991 -0.633384 -2.27701
upperneck 34.1196 -0.985531 1.97448
head 13.3936 -0.453504 1.04137
rclavicle -9.21864e-015 3.8266e-015
rhumerus -11.4008 -23.2052 -85.1231
rradius 20.2338
rwrist 41.3371
rhand -23.6355 -27.562
rfingers 7.12502
rthumb 2.82935 -57.523
lclavicle -9.21864e-015 3.8266e-015
lhumerus -2.77877 5.92811 91.268
lradius 18.0774
lwrist 10.5556
lhand -28.1591 -9.85568
lfingers 7.12502
lthumb -1.53955 20.1185
rfemur -24.4572 -7.62672 21.3472
rtibia 57.8198
rfoot -23.2184 -2.45988
rtoes 3.66489
lfemur -26.439 6.19368 -14.3859
ltibia 57.1504
lfoot -19.396 8.06497
ltoes -7.56419
249
root 0.248836 15.9708 -3.50225 -6.59459 3.61571 -3.19708
lowerback 5.45537 -0.156209 -1.21067
upperback 5.16549 -0.271958 2.04199
thorax 2.28163 -0.208281 2.79269
lowerneck -11.4063 -0.680782 -2.31658
upperneck 34.3149 -1.08247 2.07834
head 13.4846 -0.487316 1.07774
rclavicle 1.37907e-014 9.34288e-015
rhumerus -11.4378 -22.7413 -85.1658
rradius 20.4009
rwrist 40.9874
rhand -23.6523 -27.5191
rfingers 7.12502
rthumb 2.81319 -57.4803
lclavicle 1.37907e-014 9.34288e-015
lhumerus -3.12735 6.22188 91.0555
lradius 17.7865
lwrist 9.91446
lhand -27.6728 -9.53
lfingers 7.12502
lthumb -1.06989 20.4471
rfemur -24.5216 -7.55542 21.223
rtibia 57.3293
rfoot -23.1449 -2.23651
rtoes 4.00161
lfemur -26.3499 6.17675 -14.586
ltibia 56.5608
lfoot -19.2552 8.25703
ltoes -7.36756
250
root 0.253434 16.0231 -3.47023 -6.15824 3.30725 -3.01494
lowerback 5.24446 -0.0265238 -1.27419
upperback 5.10426 -0.0994457 1.98018
thorax 2.32537 -0.12259 2.75819
lowerneck -11.4058 -0.71368 -2.3181
upperneck 34.4284 -1.15684 2.15057
head 13.5372 -0.510449 1.09725
rclavicle 2.2736e-015 9.0447e-015
rhumerus -11.4634 -22.2643 -85.2599
rradius 20.6415
rwrist 40.4732
rhand -23.7385 -27.4995
rfingers 7.12502
rthumb 2.72987 -57.4618
lclavicle 2.2736e-015 9.0447e-015
lhumerus -3.52296 6.45901 90.7983
lradius 17.578
lwrist 9.37649
lhand -27.2555 -9.2672
lfingers 7.12502
lthumb -0.666825 20.7115
rfemur -24.5501 -7.36133 21.1155
rtibia 56.7051
rfoot -22.9785 -2.06226
rtoes 4.34353
lfemur -26.2138 6.2025 -14.7808
ltibia 55.8402
lfoot -19.0543 8.3809
ltoes -7.04464
251
root 0.259426 16.0845 -3.44061 -5.7248 2.97498 -2.84722
lowerback 5.04315 0.0936395 -1.29416
upperback 5.06647 0.0619584 1.90682
thorax 2.38875 -0.0414111 2.68848
lowerneck -11.4046 -0.728352 -2.29011
upperneck 34.4693 -1.19908 2.18691
head 13.5563 -0.520466 1.10109
rclavicle 1.83379e-014 -1.98785e-015
rhumerus -11.4796 -21.7903 -85.3978
rradius 20.9468
rwrist 39.8426
rhand -23.8814 -27.512
rfingers 7.12502
rthumb 2.59191 -57.476
lclavicle 1.83379e-014 -1.98785e-015
lhumerus -3.97306 6.64854 90.5012
lradius 17.4635
lwrist 8.9783
lhand -26.9701 -9.05622
lfingers 7.12502
lthumb -0.391211 20.9232
rfemur -24.5145 -7.0984 21.0248
rtibia 55.9426
rfoot -22.7262 -1.9227
rtoes 4.69361
lfemur -26.0108 6.25271 -14.9618
ltibia 54.9856
lfoot -18.8001 8.44042
ltoes -6.63148
252
root 0.267066 16.1543 -3.41314 -5.30279 2.63714 -2.69712
lowerback 4.8638 0.194131 -1.2736
upperback 5.04623 0.198282 1.82981
thorax 2.45996 0.0282273 2.59371
lowerneck -11.3769 -0.721454 -2.23595
upperneck 34.4237 -1.19971 2.17613
head 13.5295 -0.515355 1.08654
rclavicle -8.11911e-015 -4.22417e-015
rhumerus -11.4892 -21.3159 -85.5654
rradius 21.2991
rwrist 39.1488
rhand -24.0682 -27.5245
rfingers 7.12502
rthumb 2.41145 -57.4906
lclavicle -8.11911e-015 -4.22417e-015
lhumerus -4.47972 6.82047 90.1743
lradius 17.4293
lwrist 8.72514
lhand -26.8112 -8.91442
lfingers 7.12502
lthumb -0.237741 21.0652
rfemur -24.4039 -6.80453 20.945
rtibia 55.0432
rfoot -22.3951 -1.80002
rtoes 5.04928
lfemur -25.7332 6.31905 -15.1299
ltibia 53.9965
lfoot -18.4983 8.44521
ltoes -6.17359
253
root 0.276235 16.2305 -3.38793 -4.88661 2.31408 -2.56688
lowerback 4.70951 0.268536 -1.21793
upperback 5.03086 0.300592 1.75521
thorax 2.52466 0.0818906 2.48313
lowerneck -11.3518 -0.691225 -2.14677
upperneck 34.3366 -1.15385 2.10465
head 13.483 -0.49352 1.04796
rclavicle 4.84538e-016 -5.76476e-015
rhumerus -11.5111 -20.8144 -85.7457
rradius 21.6929
rwrist 38.3972
rhand -24.2718 -27.5278
rfingers 7.12502
rthumb 2.21486 -57.496
lclavicle 4.84538e-016 -5.76476e-015
lhumerus -5.03012 7.01641 89.8274
lradius 17.429
lwrist 8.58296
lhand -26.78 -8.86845
lfingers 7.12502
lthumb -0.207596 21.1112
rfemur -24.2301 -6.50798 20.8745
rtibia 54.019
rfoot -21.9996 -1.68948
rtoes 5.40424
lfemur -25.3993 6.38823 -15.2865
ltibia 52.8843
lfoot -18.1518 8.40365
ltoes -5.71384
254
root 0.286727 16.3113 -3.3648 -4.46684 2.02327 -2.45886
lowerback 4.57302 0.312172 -1.13383
upperback 5.0114 0.362315 1.68875
thorax 2.57783 0.116132 2.36627
lowerneck -11.3248 -0.644383 -2.07124
upperneck 34.2253 -1.07436 2.01661
head 13.4248 -0.461084 1.00989
rclavicle 6.67171e-015 -1.2424e-015
rhumerus -11.5386 -20.2871 -85.9295
rradius 22.102
rwrist 37.5946
rhand -24.4787 -27.5171
rfingers 7.12502
rthumb 2.015 -57.4874
lclavicle 6.67171e-015 -1.2424e-015
lhumerus -5.60585 7.29694 89.4706
lradius 17.4188
lwrist 8.47527
lhand -26.8539 -8.87739
lfingers 7.12502
lthumb -0.27896 21.1022
rfemur -24.0108 -6.22937 20.8134
rtibia 52.8888
rfoot -21.5565 -1.58841
rtoes 5.73964
lfemur -25.0332 6.45198 -15.4315
ltibia 51.669
lfoot -17.7655 8.31974
ltoes -5.2976
255
root 0.297876 16.3945 -3.34366 -4.03379 1.77068 -2.36617
lowerback 4.44739 0.326308 -1.03967
upperback 4.97652 0.384675 1.63278
thorax 2.61119 0.131112 2.25552
lowerneck -11.2922 -0.58514 -2.02288
upperneck 34.1104 -0.970736 1.93041
head 13.3637 -0.421475 0.980839
rclavicle 3.72721e-017 -1.03368e-014
rhumerus -11.5859 -19.7162 -86.1023
rradius 22.5126
rwrist 36.7149
rhand -24.6694 -27.4491
rfingers 7.12502
rthumb 1.83082 -57.421
lclavicle 3.72721e-017 -1.03368e-014
lhumerus -6.1966 7.69614 89.1074
lradius 17.3543
lwrist 8.33025
lhand -27.0351 -8.94646
lfingers 7.12502
lthumb -0.453963 21.0328
rfemur -23.7697 -5.97351 20.7556
rtibia 51.6786
rfoot -21.0814 -1.49273
rtoes 6.06985
lfemur -24.6604 6.50751 -15.5714
ltibia 50.3774
lfoot -17.3536 8.19755
ltoes -4.91756
256
root 0.309164 16.4785 -3.3244 -3.57701 1.57006 -2.28211
lowerback 4.32196 0.311498 -0.948169
upperback 4.92376 0.368207 1.58525
thorax 2.62773 0.126695 2.15576
lowerneck -11.2828 -0.515391 -1.98038
upperneck 34.0131 -0.847729 1.83621
head 13.3152 -0.375132 0.952687
rclavicle 1.47846e-015 -1.49089e-015
rhumerus -11.6423 -19.1237 -86.2626
rradius 22.9049
rwrist 35.7892
rhand -24.8321 -27.336
rfingers 7.12502
rthumb 1.67375 -57.3091
lclavicle 1.47846e-015 -1.49089e-015
lhumerus -6.77694 8.25717 88.7385
lradius 17.1998
lwrist 8.05392
lhand -27.2723 -9.0689
lfingers 7.12502
lthumb -0.683063 20.9097
rfemur -23.5294 -5.74995 20.6954
rtibia 50.4148
rfoot -20.5883 -1.40324
rtoes 6.40711
lfemur -24.3076 6.5428 -15.7136
ltibia 49.0368
lfoot -16.9267 8.04399
ltoes -4.59124
257
root 0.320139 16.5619 -3.30664 -3.09231 1.41797 -2.19545
lowerback 4.18762 0.273839 -0.876813
upperback 4.84987 0.320755 1.54483
thorax 2.62855 0.106271 2.07515
lowerneck -11.2674 -0.444432 -1.96872
upperneck 33.9176 -0.721902 1.76062
head 13.2667 -0.329087 0.93775
rclavicle -1.47473e-014 -2.77305e-014
rhumerus -11.7147 -18.5199 -86.4007
rradius 23.274
rwrist 34.8644
rhand -24.9516 -27.1813
rfingers 7.12502
rthumb 1.55831 -57.1554
lclavicle -1.47473e-014 -2.77305e-014
lhumerus -7.33647 8.97541 88.3617
lradius 16.9429
lwrist 7.59972
lhand -27.5372 -9.19439
lfingers 7.12502
lthumb -0.938943 20.7833
rfemur -23.3083 -5.55994 20.6239
rtibia 49.1244
rfoot -20.088 -1.32383
rtoes 6.72635
lfemur -23.9882 6.55899 -15.8669
ltibia 47.6732
lfoot -16.5036 7.85987
ltoes -4.27992
